HIERARCHY
ROOT Hips
{
  OFFSET 55.5274 57.9372 -9.52834
  CHANNELS 6 Xposition Yposition Zposition Zrotation Xrotation Yrotation
  JOINT spine
  {
    OFFSET 0 6.84637 0.3937
    CHANNELS 3 Zrotation Xrotation Yrotation
    JOINT spine1
    {
      OFFSET 0 9.49621 0
      CHANNELS 3 Zrotation Xrotation Yrotation
      JOINT spine2
      {
        OFFSET 0 9.09909 0
        CHANNELS 3 Zrotation Xrotation Yrotation
        JOINT Neck
        {
          OFFSET 0 23.3612 1.11378
          CHANNELS 3 Zrotation Xrotation Yrotation
          JOINT Head
          {
            OFFSET 0 7.05802 0
            CHANNELS 3 Zrotation Xrotation Yrotation
            End Site
            {
              OFFSET 0 17.0844 -5.63419
            }
          }
        }
        JOINT RightShoulder
        {
          OFFSET -3.83136 9.82631 -0.533491
          CHANNELS 3 Zrotation Xrotation Yrotation
          JOINT RightArm
          {
            OFFSET 0 12.8881 0
            CHANNELS 3 Zrotation Xrotation Yrotation
            JOINT RightArmRoll
            {
              OFFSET 0 6.50617 0
              CHANNELS 3 Zrotation Xrotation Yrotation
              JOINT RightForeArm
              {
                OFFSET 0 18.9501 0
                CHANNELS 3 Zrotation Xrotation Yrotation
                JOINT RightForeArmRoll
                {
                  OFFSET 0 7.30093 0
                  CHANNELS 3 Zrotation Xrotation Yrotation
                  JOINT RightHand
                  {
                    OFFSET 0 14.6514 0
                    CHANNELS 3 Zrotation Xrotation Yrotation
                    End Site
                    {
                      OFFSET 0 0 0
                    }
                  }
                }
              }
            }
          }
        }
        JOINT LeftShoulder
        {
          OFFSET 3.83136 9.82631 -0.533491
          CHANNELS 3 Zrotation Xrotation Yrotation
          JOINT LeftArm
          {
            OFFSET 0 12.8881 0
            CHANNELS 3 Zrotation Xrotation Yrotation
            JOINT LeftArmRoll
            {
              OFFSET 0 6.50617 0
              CHANNELS 3 Zrotation Xrotation Yrotation
              JOINT LeftForeArm
              {
                OFFSET 0 18.9501 0
                CHANNELS 3 Zrotation Xrotation Yrotation
                JOINT LeftForeArmRoll
                {
                  OFFSET 0 7.30092 0
                  CHANNELS 3 Zrotation Xrotation Yrotation
                  JOINT LeftHand
                  {
                    OFFSET 0 14.6514 0
                    CHANNELS 3 Zrotation Xrotation Yrotation
                    End Site
                    {
                      OFFSET 0 0 0
                    }
                  }
                }
              }
            }
          }
        }
      }
    }
  }
  JOINT RightUpLeg
  {
    OFFSET -6.06837 -1.11278 -0.933477
    CHANNELS 3 Zrotation Xrotation Yrotation
    JOINT RightUpLegRoll
    {
      OFFSET 0 17.1796 0
      CHANNELS 3 Zrotation Xrotation Yrotation
      JOINT RightLeg
      {
        OFFSET 0 -21.2743 0
        CHANNELS 3 Zrotation Xrotation Yrotation
        JOINT RightLegRoll
        {
          OFFSET 0 21.3439 0
          CHANNELS 3 Zrotation Xrotation Yrotation
          JOINT RightFoot
          {
            OFFSET 0 17.7652 0
            CHANNELS 3 Zrotation Xrotation Yrotation
            JOINT RightToeBase
            {
              OFFSET 0 14.8508 0
              CHANNELS 3 Zrotation Xrotation Yrotation
              End Site
              {
                OFFSET 0.0062947 7.19215 -0.829004
              }
            }
          }
        }
      }
    }
  }
  JOINT LeftUpLeg
  {
    OFFSET 6.06837 -1.11278 -0.933477
    CHANNELS 3 Zrotation Xrotation Yrotation
    JOINT LeftUpLegRoll
    {
      OFFSET 0 17.1797 0
      CHANNELS 3 Zrotation Xrotation Yrotation
      JOINT LeftLeg
      {
        OFFSET 0 21.2742 0
        CHANNELS 3 Zrotation Xrotation Yrotation
        JOINT LeftLegRoll
        {
          OFFSET 0 21.5412 0
          CHANNELS 3 Zrotation Xrotation Yrotation
          JOINT LeftFoot
          {
            OFFSET 0 17.5679 0
            CHANNELS 3 Zrotation Xrotation Yrotation
            JOINT LeftToeBase
            {
              OFFSET 0 14.8508 0
              CHANNELS 3 Zrotation Xrotation Yrotation
              End Site
              {
                OFFSET -0.0282102 7.19213 -0.829005
              }
            }
          }
        }
      }
    }
  }
}
MOTION
Frames: 7
Frame Time: 0.00208333
55.3321 59.6752 -6.23845 -2.32492 20.4166 -1.26102 0.646283 2.11981 0.599089 1.27039 8.24809 1.08969 1.26068 9.89283 1.07005 -23.1072 50.6566 13.0285 8.81179 0.561212 -0.49788 33.981 0.170589 3.8462 119.756 28.2428 -48.7844 1.91186e-007 -1.65953e-006 -3.38523e-006 21.9926 51.6845 -10.3458 -1.14385e-005 2.114e-006 -3 8.02892 -4.95144 0.697702 -42.0057 -3.9849 1.00028 -126.329 39.8534 50.9545 -1.4629e-005 -2.21087e-006 6.30507e-006 -39.2079 27.6729 6.69956 -3.94409e-006 1.12416e-007 2.99999 -8.02889 -4.95147 -0.69768 17.7114 80.9917 164.498 180 7.01605e-015 179.217 173.064 69.9364 -177.786 3.98827e-006 -1.60974e-006 1.49972 -18.0051 66.1105 18.0649 8.13649 25.2327 -3.48774 -54.2854 70.9889 -127.475 4.54188e-006 -4.6773e-006 -0.458138 -5.59406 -75.6518 -0.856629 -4.08024e-007 -1.90172e-007 -1.62679 18.8564 67.3314 -18.9844 -8.13649 25.2327 3.48774 
55.3463 59.6706 -6.27215 -2.30606 20.2713 -1.26884 0.646968 2.12703 0.598475 1.2726 8.26252 1.08801 1.26291 9.90726 1.06831 -23.0671 50.5983 12.9966 8.77963 0.549367 -0.494624 34.0872 0.190639 3.84638 119.677 28.3372 -48.672 1.91186e-007 -1.65953e-006 -3.38523e-006 21.9968 51.6033 -10.3313 -1.14385e-005 2.114e-006 -3 8.02892 -4.95144 0.697702 -42.1693 -3.96523 0.999313 -126.247 39.9609 50.7077 -1.4629e-005 -2.21087e-006 6.30507e-006 -39.0847 27.4336 6.60322 -3.94409e-006 1.12416e-007 2.99999 -8.02889 -4.95147 -0.69768 17.8917 81.0977 164.292 180 7.01605e-015 179.216 173.123 69.9437 -177.825 3.98827e-006 -1.60974e-006 1.49947 -18.0084 66.117 18.0686 8.13649 25.2327 -3.48774 -54.5605 71.0814 -127.175 4.54188e-006 -4.6773e-006 -0.460198 -5.53684 -75.6418 -0.813818 -4.08024e-007 -1.90172e-007 -1.62654 18.8546 67.3302 -18.984 -8.13649 25.2327 3.48774 
55.3419 59.6623 -6.30165 -2.28739 20.1273 -1.27645 0.647525 2.13379 0.597873 1.27454 8.27605 1.08645 1.26489 9.92079 1.06669 -23.0235 50.5426 12.9634 8.74589 0.536889 -0.491193 34.1951 0.210645 3.84621 119.598 28.4292 -48.564 1.91186e-007 -1.65953e-006 -3.38523e-006 22.0044 51.5239 -10.3187 -1.14385e-005 2.114e-006 -3 8.02892 -4.95144 0.697702 -42.3255 -3.94397 0.996354 -126.17 40.0637 50.4592 -1.4629e-005 -2.21087e-006 6.30507e-006 -38.9651 27.1982 6.51059 -3.94409e-006 1.12416e-007 2.99999 -8.02889 -4.95147 -0.69768 18.073 81.2041 164.086 180 7.01605e-015 179.215 173.183 69.9495 -177.865 3.98827e-006 -1.60974e-006 1.49918 -18.0112 66.1228 18.0718 8.13649 25.2327 -3.48774 -54.8365 71.1719 -126.874 4.54188e-006 -4.6773e-006 -0.46223 -5.4807 -75.6328 -0.771867 -4.08024e-007 -1.90172e-007 -1.62629 18.8527 67.3291 -18.9837 -8.13649 25.2327 3.48774 
55.3493 59.6482 -6.32369 -2.26901 19.9847 -1.28375 0.647942 2.13998 0.597263 1.27618 8.28845 1.08498 1.26655 9.93319 1.06518 -22.976 50.4902 12.9287 8.71053 0.523608 -0.48754 34.3049 0.230865 3.8459 119.518 28.5182 -48.462 1.91186e-007 -1.65953e-006 -3.38523e-006 22.016 51.4468 -10.3082 -1.14385e-005 2.114e-006 -3 8.02892 -4.95144 0.697702 -42.472 -3.92063 0.990785 -126.097 40.1602 50.2086 -1.4629e-005 -2.21087e-006 6.30507e-006 -38.8496 26.968 6.42234 -3.94409e-006 1.12416e-007 2.99999 -8.02889 -4.95147 -0.69768 18.2538 81.311 163.88 180 7.01605e-015 179.213 173.242 69.9537 -177.904 3.98827e-006 -1.60974e-006 1.49887 -18.0133 66.1276 18.0744 8.13649 25.2327 -3.48774 -55.1119 71.26 -126.575 4.54188e-006 -4.6773e-006 -0.464227 -5.42522 -75.6252 -0.730453 -4.08024e-007 -1.90172e-007 -1.62605 18.8508 67.3281 -18.9834 -8.13649 25.2327 3.48774 
55.3537 59.6487 -6.35409 -2.251 19.8436 -1.29062 0.648208 2.1455 0.596626 1.27748 8.29951 1.08359 1.26788 9.94425 1.06375 -22.9242 50.4417 12.8926 8.67354 0.509354 -0.483615 34.4173 0.251555 3.84563 119.438 28.6034 -48.3673 1.91186e-007 -1.65953e-006 -3.38523e-006 22.0321 51.3725 -10.3 -1.14385e-005 2.114e-006 -3 8.02892 -4.95144 0.697702 -42.6067 -3.89472 0.981994 -126.031 40.249 49.9557 -1.4629e-005 -2.21087e-006 6.30507e-006 -38.7388 26.744 6.33914 -3.94409e-006 1.12416e-007 2.99999 -8.02889 -4.95147 -0.69768 18.4328 81.4182 163.676 180 7.01605e-015 179.212 173.301 69.9562 -177.944 3.98827e-006 -1.60974e-006 1.49853 -18.0147 66.1312 18.0764 8.13649 25.2327 -3.48774 -55.385 71.3454 -126.278 4.54188e-006 -4.6773e-006 -0.466183 -5.36997 -75.6198 -0.689254 -4.08024e-007 -1.90172e-007 -1.62585 18.8489 67.3273 -18.9832 -8.13649 25.2327 3.48774 
55.3395 59.6505 -6.37977 -2.23347 19.7041 -1.29695 0.64831 2.15022 0.595944 1.27841 8.309 1.08226 1.26884 9.95374 1.06239 -22.8677 50.3977 12.8549 8.6349 0.493958 -0.479367 34.5324 0.272973 3.84562 119.357 28.6842 -48.2814 1.91186e-007 -1.65953e-006 -3.38523e-006 22.053 51.3012 -10.2943 -1.14385e-005 2.114e-006 -3 8.02892 -4.95144 0.697702 -42.7275 -3.86578 0.969366 -125.973 40.3285 49.7 -1.4629e-005 -2.21087e-006 6.30507e-006 -38.633 26.5272 6.26163 -3.94409e-006 1.12416e-007 2.99999 -8.02889 -4.95147 -0.69768 18.6084 81.5258 163.476 180 7.01604e-015 179.211 173.361 69.9569 -177.984 3.98827e-006 -1.60974e-006 1.49818 -18.0151 66.1334 18.0775 8.13649 25.2327 -3.48774 -55.654 71.4276 -125.985 4.54188e-006 -4.6773e-006 -0.468091 -5.31451 -75.6171 -0.647936 -4.08024e-007 -1.90172e-007 -1.62571 18.8469 67.3266 -18.9829 -8.13649 25.2327 3.48774 
55.342 59.6432 -6.40811 -2.21627 19.5667 -1.30242 0.648208 2.15426 0.595229 1.27895 8.31711 1.08104 1.26941 9.96186 1.06116 -22.8061 50.3574 12.8151 8.59491 0.478495 -0.474849 34.6514 0.294718 3.84524 119.274 28.762 -48.2014 1.91186e-007 -1.65953e-006 -3.38523e-006 22.0779 51.2344 -10.2913 -1.14385e-005 2.114e-006 -3 8.02892 -4.95144 0.697702 -42.8369 -3.8338 0.953183 -125.921 40.4009 49.4402 -1.4629e-005 -2.21087e-006 6.30507e-006 -38.5301 26.3147 6.18834 -3.94409e-006 1.12416e-007 2.99999 -8.02889 -4.95147 -0.69768 18.7818 81.6338 163.279 180 7.01604e-015 179.209 173.421 69.956 -178.025 3.98827e-006 -1.60974e-006 1.49779 -18.0146 66.1343 18.078 8.13649 25.2327 -3.48774 -55.921 71.5073 -125.696 4.54188e-006 -4.6773e-006 -0.469981 -5.26038 -75.6157 -0.607682 -4.08024e-007 -1.90172e-007 -1.62554 18.8449 67.326 -18.9828 -8.13649 25.2327 3.48774 
